<svg xmlns="http://www.w3.org/2000/svg" xmlns:xlink="http://www.w3.org/1999/xlink" width="500" zoomAndPan="magnify" viewBox="0 0 375 374.999991" height="500" preserveAspectRatio="xMidYMid meet" version="1.0"><defs><clipPath id="id1"><path d="M 26.796875 34.027344 L 348.546875 34.027344 L 348.546875 340.777344 L 26.796875 340.777344 Z M 26.796875 34.027344 " clip-rule="nonzero"/></clipPath></defs><rect x="-37.5" width="450" fill="#ffffff" y="-37.499999" height="449.999989" fill-opacity="1"/><rect x="-37.5" width="450" fill="#ffffff" y="-37.499999" height="449.999989" fill-opacity="1"/><rect x="-37.5" width="450" fill="#ffffff" y="-37.499999" height="449.999989" fill-opacity="1"/><path fill="#193046" d="M 158.832031 139.667969 L 158.832031 301.8125 C 165.832031 303.125 173.050781 303.8125 180.425781 303.8125 C 187.808594 303.8125 195.027344 303.132812 202.023438 301.84375 L 202.023438 139.667969 L 158.832031 139.667969 " fill-opacity="1" fill-rule="nonzero"/><path fill="#193046" d="M 100.53125 272.113281 C 112.746094 283.609375 127.441406 292.5 143.71875 297.902344 L 143.71875 170.464844 L 100.53125 170.464844 L 100.53125 272.113281 " fill-opacity="1" fill-rule="nonzero"/><path fill="#193046" d="M 217.136719 297.988281 C 233.429688 292.652344 248.121094 283.847656 260.328125 272.417969 L 260.328125 108.875 L 217.136719 108.875 L 217.136719 297.988281 " fill-opacity="1" fill-rule="nonzero"/><g clip-path="url(#id1)"><path fill="#3870c2" d="M 348.542969 191.828125 L 315.855469 114.898438 L 283.164062 191.828125 L 303.121094 191.828125 C 300.785156 257.371094 246.640625 309.972656 180.425781 309.972656 C 112.726562 309.972656 57.652344 254.988281 57.652344 187.402344 C 57.652344 119.820312 112.726562 64.835938 180.425781 64.835938 C 233.464844 64.835938 278.757812 98.585938 295.886719 145.699219 L 311.902344 108.003906 C 305.523438 97.488281 297.882812 87.769531 289.058594 78.957031 C 274.957031 64.878906 258.523438 53.824219 240.230469 46.097656 C 221.28125 38.097656 201.160156 34.039062 180.425781 34.039062 C 159.695312 34.039062 139.574219 38.097656 120.625 46.097656 C 102.328125 53.824219 85.902344 64.878906 71.796875 78.957031 C 57.695312 93.039062 46.621094 109.4375 38.882812 127.703125 C 30.867188 146.621094 26.800781 166.707031 26.800781 187.402344 C 26.800781 208.101562 30.867188 228.1875 38.882812 247.105469 C 46.621094 265.371094 57.695312 281.769531 71.796875 295.847656 C 85.902344 309.929688 102.328125 320.984375 120.625 328.707031 C 139.574219 336.710938 159.695312 340.769531 180.425781 340.769531 C 201.160156 340.769531 221.28125 336.710938 240.230469 328.707031 C 258.523438 320.984375 274.957031 309.929688 289.058594 295.847656 C 303.160156 281.769531 314.238281 265.371094 321.972656 247.105469 C 329.417969 229.539062 333.449219 210.960938 333.988281 191.828125 L 348.542969 191.828125 " fill-opacity="1" fill-rule="nonzero"/></g></svg>